<svg width="50" height="48" viewBox="0 0 50 48" fill="none" xmlns="http://www.w3.org/2000/svg">
<path d="M1.09497 18.233L25 0.86499L48.905 18.233L39.774 46.334H10.226L1.09497 18.233Z" stroke="black" stroke-width="1.4"/>
<path fill-rule="evenodd" clip-rule="evenodd" d="M18.333 22.667C17.873 22.667 17.5 23.04 17.5 23.5V31.833C17.5 32.294 17.873 32.667 18.333 32.667H31.667C32.127 32.667 32.5 32.294 32.5 31.833V23.5C32.5 23.04 32.127 22.667 31.667 22.667H18.333ZM15.833 23.5C15.833 22.119 16.953 21 18.333 21H31.667C33.047 21 34.167 22.119 34.167 23.5V31.833C34.167 33.214 33.047 34.333 31.667 34.333H18.333C16.953 34.333 15.833 33.214 15.833 31.833V23.5Z" fill="black"/>
<path fill-rule="evenodd" clip-rule="evenodd" d="M21.565 18.399C22.034 17.93 22.67 17.667 23.333 17.667H26.667C27.33 17.667 27.966 17.93 28.434 18.399C28.903 18.868 29.167 19.504 29.167 20.167V33.5C29.167 33.96 28.793 34.333 28.333 34.333C27.873 34.333 27.5 33.96 27.5 33.5V20.167C27.5 19.946 27.412 19.734 27.256 19.577C27.1 19.421 26.888 19.333 26.667 19.333H23.333C23.112 19.333 22.9 19.421 22.744 19.577C22.588 19.734 22.5 19.946 22.5 20.167V33.5C22.5 33.96 22.127 34.333 21.667 34.333C21.206 34.333 20.833 33.96 20.833 33.5V20.167C20.833 19.504 21.097 18.868 21.565 18.399Z" fill="black"/>
</svg>
