<svg width="50" height="48" viewBox="0 0 50 48" fill="none" xmlns="http://www.w3.org/2000/svg">
<path d="M24.9999 0L49.7269 17.966L40.2819 47.034H9.71796L0.272949 17.966L24.9999 0Z" fill="black"/>
<path fill-rule="evenodd" clip-rule="evenodd" d="M18.72 28.887C19.502 28.106 20.562 27.667 21.667 27.667H28.333C29.438 27.667 30.498 28.106 31.28 28.887C32.061 29.668 32.5 30.728 32.5 31.833V33.5C32.5 33.96 32.127 34.333 31.667 34.333C31.206 34.333 30.833 33.96 30.833 33.5V31.833C30.833 31.17 30.57 30.534 30.101 30.066C29.632 29.597 28.996 29.333 28.333 29.333H21.667C21.004 29.333 20.368 29.597 19.899 30.066C19.43 30.534 19.167 31.17 19.167 31.833V33.5C19.167 33.96 18.794 34.333 18.333 34.333C17.873 34.333 17.5 33.96 17.5 33.5V31.833C17.5 30.728 17.939 29.668 18.72 28.887Z" fill="white"/>
<path fill-rule="evenodd" clip-rule="evenodd" d="M25 19.333C23.619 19.333 22.5 20.453 22.5 21.833C22.5 23.214 23.619 24.333 25 24.333C26.381 24.333 27.5 23.214 27.5 21.833C27.5 20.453 26.381 19.333 25 19.333ZM20.833 21.833C20.833 19.532 22.699 17.667 25 17.667C27.301 17.667 29.167 19.532 29.167 21.833C29.167 24.135 27.301 26 25 26C22.699 26 20.833 24.135 20.833 21.833Z" fill="white"/>
</svg>
